<?xml version="1.0" standalone="yes"?>
<svg xmlns="http://www.w3.org/2000/svg" width="277" height="271">
<path style="fill:#fefefe; stroke:none;" d="M0 0L0 271L277 271L277 0L0 0z"/>
<path style="fill:#4fa9d3; stroke:none;" d="M129 16C129.992 22.1539 135.682 25.1727 139.995 29.1698C141.964 30.9949 145.389 33.7727 144.503 36.8665C143.733 39.5545 140.269 40.52 137.999 41.4205C132.515 43.5961 127.158 45.984 122 48.8619C114.599 52.9913 107.715 57.8468 101 62.9954C98.297 65.0678 94.8613 67.9568 91.213 66.4282C85.7525 64.1404 84.317 54.0366 83 49C74.8373 51.7181 83.1788 62.7953 84.581 68C85.3094 70.7036 84.7231 74.2502 84.3156 77C83.5157 82.3965 78.1638 88.5376 74.6404 92.5756C71.8032 95.8274 68.5182 99.9875 70.6798 104.663C71.2706 105.941 72.3756 106.414 73.6844 105.839C79.0176 103.495 80.0917 99.2417 87 100.326C100.046 102.372 112.131 110.027 121.996 118.439C125.196 121.167 130.568 125.616 131.414 129.985C132.159 133.831 127.698 136.142 124.999 137.796C119.069 141.43 105.264 144.651 104 152C111.571 151.607 118.377 147.147 125 143.742C128.128 142.134 131.287 139.782 134.985 140.422C141.698 141.584 141.874 148.557 142.004 153.999C142.043 155.661 141.879 160.665 144.83 160.079C147.23 159.602 146.965 155.759 146.995 153.999C147.106 147.623 142.976 139.992 144.333 134.005C145.556 128.615 149.806 129.48 154 128.537C156.431 127.99 158.496 126.328 161 126.074C168.182 125.345 173.38 129.925 179 133L176 150C177.801 150.562 179.122 150.824 181 151C181.922 143.858 182.787 133.848 190.171 130.394C194.9 128.182 200.213 129.304 205 127C200.108 120.217 190.785 128.287 185.514 120.556C183.582 117.724 184.066 114.249 183.985 111C183.847 105.437 181.094 98.4016 182.623 93C183.428 90.1588 185.609 87.951 186.183 85C187.04 80.5915 183.582 77.2774 183.738 73C183.917 68.066 186.028 62.806 187.112 58C188.88 50.1562 189.823 42.6607 192 35L185 31C184.014 32.4785 184 32.2032 184 34C176.555 32.2275 170.335 34.6726 163 34.5702C159.603 34.5228 155.18 32.656 152 31.4306C143.106 28.0025 138.851 17.4385 129 16z"/>
<path style="fill:#818182; stroke:none;" d="M141 18C151.101 32.3379 165.546 30 181 30C171.291 20.1877 154.11 18 141 18M141 36C137.712 31.5322 133.204 28.4164 129.09 24.733C127.251 23.0874 125.485 20.8491 122.91 20.4221C119.734 19.8951 115.822 21.9162 113 23.1698C104.396 26.9915 90.1391 34.7992 86.4468 44C84.8024 48.0975 88.5798 62.3543 94.1049 62.3642C98.6973 62.3724 104.349 55.5238 108 53.0285C117.993 46.1991 129.525 39.9073 141 36z"/>
<path style="fill:#4fa9d3; stroke:none;" d="M135 30L136 31L135 30z"/>
<path style="fill:#818182; stroke:none;" d="M192 35C191.316 36.5801 191.195 36.7772 190 38C192.577 38.9757 192.952 37.139 192 35z"/>
<path style="fill:#fefefe; stroke:none;" d="M178 74C179.427 65.6073 182.132 57.5268 183.155 49C183.466 46.4126 184.616 42.9246 183.393 40.4336C181.033 35.6295 170.037 38.5187 166.004 39.0548C164.069 39.3119 161.355 39.5458 160.312 41.5139C158.833 44.3075 161.915 47.8081 163.309 50C166.396 54.8565 169.231 59.8204 171.742 65C173.493 68.6129 174.441 71.9441 178 74z"/>
<path style="fill:#818182; stroke:none;" d="M164 43C166.89 49.1111 171.603 60.0431 177 64C177.316 56.6639 179.078 49.297 180 42L164 43M196 42C190.254 44.3098 191.581 53.55 190.35 59C189.309 63.608 187.07 69.2538 187.563 74C187.925 77.4858 190.021 80.3736 189.772 84C189.521 87.6413 187.33 90.5426 186.51 94C185.736 97.2615 186.751 100.717 186.975 104C187.257 108.122 186.765 116.572 190.318 119.357C192.28 120.896 194.726 120.344 197 120.165C199.435 119.974 202.458 120.359 204.606 118.972C209.362 115.904 210.603 106.114 211.41 101C213.459 88.0155 212.906 74.2876 207.663 62C204.587 54.7916 200.083 48.6159 196 42z"/>
<path style="fill:#fefefe; stroke:none;" d="M171 76C168.114 63.8507 159.511 44.9065 145 44.5995C136.638 44.4227 125.804 51.6911 119 55.9498C112.959 59.7308 101.062 65.3143 99.6535 73.0039C98.2503 80.6643 103.964 85.1526 109 89.9606C111.818 92.651 114.837 95.0211 118 97.2901C127.697 104.247 138.572 115.051 151 112.115C153.784 111.457 156.386 111.665 158.675 109.668C162.564 106.275 168.563 98.2853 169.088 93C169.781 86.0196 164.808 82.205 171 76z"/>
<path style="fill:#818182; stroke:none;" d="M143 48.8225C139.211 49.2216 135.352 51.5824 132 53.2477C124.708 56.8703 117.566 60.9172 111 65.7562C107.957 67.9985 103.505 70.879 103.207 75.0394C102.881 79.5829 106.963 83.0676 110.001 85.8302C117.624 92.7632 126.124 98.91 135 104.139C138.186 106.016 142.129 109.304 146 109.113C154.276 108.705 163.182 101.383 164.477 93C164.999 89.618 163.005 86.4091 163.148 83C163.282 79.8265 165.215 77.1186 165.397 74C165.636 69.917 162.565 65.4547 160.691 62C157.094 55.3672 151.729 47.9032 143 48.8225z"/>
<path style="fill:#4fa9d3; stroke:none;" d="M171 55L172 56L171 55z"/>
<path style="fill:#818182; stroke:none;" d="M76 60C73.0855 70.6819 71 79.8481 71 91C80.214 83.1606 84.9327 69.8938 76 60z"/>
<path style="fill:#4fa9d3; stroke:none;" d="M162 65L163 66L162 65z"/>
<path style="fill:#fefefe; stroke:none;" d="M80 95C101.55 95.0594 125.316 110.348 137 128C141 127.19 146.21 124.342 143.547 119.39C142.105 116.709 138.506 115.54 136 114.138C131.185 111.444 126.573 108.412 122 105.33C114.389 100.2 107.548 94.4194 101 88.0046C98.1582 85.2207 94.6388 81.2998 90.1736 82.3372C85.2209 83.4878 81.8396 90.7913 80 95z"/>
<path style="fill:#4fa9d3; stroke:none;" d="M70 84C70.0103 87.0941 69.5911 89.896 72 92C71.3485 89.3017 71.092 86.5275 70 84M75 85L76 86L75 85z"/>
<path style="fill:#818182; stroke:none;" d="M87 91L101 95C97.1211 89.4977 91.7916 83.3648 87 91z"/>
<path style="fill:#4fa9d3; stroke:none;" d="M93 86L94 87L93 86M89 91L90 92L89 91z"/>
<path style="fill:#fefefe; stroke:none;" d="M175 93C172.329 97.364 169.851 101.853 166.842 106C164.857 108.735 161.726 111.611 160.927 114.995C159.356 121.658 171.42 124.53 175.852 121.968C178.416 120.487 178.891 117.717 178.977 115C179.174 108.715 178.882 98.0453 175 93z"/>
<path style="fill:#818182; stroke:none;" d="M173 103C170.66 107.92 166.745 111.826 165 117C168.335 118.249 171.442 118.845 175 119C175 113.612 175.594 107.88 173 103M79 104C77.8259 106.966 76.7957 108.465 74 110C76.8602 120.457 83.1945 131.244 91.0903 138.714C93.4429 140.939 96.6604 144.33 100 144.868C103.892 145.495 108.573 141.92 112 140.424C115.804 138.764 126.422 135.687 127.079 130.815C127.649 126.583 120.806 121.774 118 119.464C106.851 110.285 93.5679 104.01 79 104z"/>
<path style="fill:#4fa9d3; stroke:none;" d="M137 105L138 106L137 105M139 106L140 107L139 106M169 109L170 110L169 109M187 109L187 112C187.696 110.446 187.696 110.554 187 109M136 119L137 120L136 119z"/>
<path style="fill:#818182; stroke:none;" d="M137 120L139 124C139.558 121.692 138.996 121.244 137 120M151 158C158.481 157.674 166.332 155.365 173 152C172.221 146.537 176.013 137.93 172.258 133.43C167.376 127.579 160.754 130.77 154.985 131.777C152.705 132.175 148.725 131.481 147.788 134.318C146.746 137.474 149.475 141.973 150.24 145C151.309 149.232 151 153.671 151 158z"/>
<path style="fill:#4fa9d3; stroke:none;" d="M128.333 130.667C128.278 130.722 128.222 131.778 128.667 131.333C128.722 131.278 128.778 130.222 128.333 130.667z"/>
<path style="fill:#818182; stroke:none;" d="M186 144L197 134C189.684 131.052 186.78 138.011 186 144z"/>
<path style="fill:#4fa9d3; stroke:none;" d="M87 134L88 135L87 134M195 134L196 135L195 134M147 136L148 137L147 136z"/>
<path style="fill:#818182; stroke:none;" d="M114 153C118.614 156.687 125.24 157.779 130.999 158.571C133.203 158.874 136.225 159.408 137.821 157.397C140.771 153.679 137.91 146.982 137 143C128.781 143.846 121.558 149.853 114 153z"/>
<path style="fill:#4fa9d3; stroke:none;" d="M138.333 157.667C138.278 157.722 138.222 158.778 138.667 158.333C138.722 158.278 138.778 157.222 138.333 157.667M91 245L93 245C94.5648 250.097 96.8777 250.939 102 251L102 204L82 204L82 218L86 218C86 222.483 87.0923 228.706 85.2577 232.887C83.7647 236.289 80.071 236.451 78.6034 232.926C77.2874 229.765 78 225.352 78 222L78 200C78 196.308 76.7426 189.608 79.027 186.453C80.7124 184.125 83.4921 184.994 84.821 187.164C86.6614 190.169 85.9996 194.632 86 198L102 198C101.995 189.748 101.753 179.744 95.4707 173.532C86.2792 164.445 67.0345 168.942 62.919 181C58.9679 192.576 61 206.956 61 219C61 226.083 60.4791 234.287 63.1335 241C67.4714 251.971 84.8504 257.474 91 245M218 216L202 216C202 221.045 202.897 227.107 201.427 231.98C200.476 235.136 197.416 237.465 195.178 233.833C193.334 230.838 194 226.352 194 223L194 200C194 197.046 192.571 183.344 198.791 185.346C203.802 186.958 202 198.061 202 202L218 202C218 194.363 219.591 184.871 215.633 178.004C209.469 167.312 189.314 165.641 182.109 176.043C177.83 182.222 178 189.817 178 197C178 208 177.947 219.001 178.001 230C178.028 235.577 178.811 241.386 182.558 245.815C189.855 254.44 206.288 254.117 213.772 245.895C220.386 238.628 218 225.042 218 216z"/>
<path style="fill:#818182; stroke:none;" d="M194 169C196.052 169.874 197.747 169.953 200 170C197.948 169.126 196.253 169.047 194 169z"/>
<path style="fill:#4fa9d3; stroke:none;" d="M108 170L108 251L123 251L123 197C126.614 208.892 128.34 222.633 129.845 235C130.322 238.919 130.373 247.301 133.738 249.972C136.824 252.421 144.253 251 148 251C148.155 232.22 155.194 213.77 156 195C157.862 201.299 157 208.463 157 215L157 251L172 251L172 170L146 170C145.923 179.338 143.793 188.774 142.427 198C141.543 203.978 141.4 210.122 140 216C135.524 201.269 135.813 185.1 133 170L108 170z"/>
</svg>
